<svg width="20" height="21" viewBox="0 0 20 21" fill="none" xmlns="http://www.w3.org/2000/svg">
<path d="M7.13091 18.624H12.8694C14.9946 18.624 16.0572 18.624 16.5555 18.0511C16.7119 17.8713 16.828 17.66 16.8957 17.4314C17.1117 16.7035 16.5413 15.8069 15.4006 14.0138L15.2858 13.8334C12.5002 16.75 7.50024 16.75 4.71448 13.8334L4.59968 14.0139C3.45902 15.807 2.88869 16.7035 3.10462 17.4314C3.17242 17.66 3.28846 17.8713 3.44491 18.0512C3.94319 18.624 5.00576 18.624 7.13091 18.624Z" fill="#2B6CF5"/>
<path d="M16.25 8.625C16.25 10.5469 15.3825 12.2662 14.0177 13.4127C12.9313 14.3253 11.5298 14.875 10 14.875C8.47 14.875 7.06841 14.3252 5.98198 13.4125C4.61737 12.266 3.75 10.5467 3.75 8.625C3.75 5.17322 6.54822 2.375 10 2.375C13.4517 2.375 16.25 5.17322 16.25 8.625Z" fill="#2B6CF5"/>
</svg>
